# xmcd
#
# Track frame offsets:
#	150
#	13265
#	24975
#	33908
#	45645
#	58273
#	63920
#	71463
#	81250
#	92410
#
# Disc length: 1346 seconds
#
# Revision: 0
# Processed by: cddbd v1.5.1PL0 Copyright (c) Steve Scherf et al.
# Submitted via: dBpowerAMP V4.0
#
DISCID=7905400a
DTITLE=Gene Autry - Rudolph The Red-Nosed Reindeer-Christmas Classics
DYEAR=1993
DGENRE=Christmas
TTITLE0=Gene Autry- Rudolph The Red-Nosed Reindeer
TTITLE1=Gene Autry- Santa Claus Is Coming To Town
TTITLE2=Gene Autry- Jingle Bells
TTITLE3=Gene Autry- Silver Bells
TTITLE4=Gene Autry- Here Comes Santa Claus
TTITLE5=Gene Autry- O' Little Town Of Bethlehem
TTITLE6=Gene Autry- Silent Night
TTITLE7=Gene Autry- Up On The House Top
TTITLE8=Gene Autry- Sleigh Bells
TTITLE9=Gene Autry- Frosty The Snowman
EXTD=Gene Autry- Rudolph The Red-Nosed Reindeer-Christmas Classics
EXTT0=
EXTT1=
EXTT2=
EXTT3=
EXTT4=
EXTT5=
EXTT6=
EXTT7=
EXTT8=
EXTT9=
PLAYORDER=
